<svg width="286" height="93" viewBox="0 0 286 93" fill="none" xmlns="http://www.w3.org/2000/svg">
<path d="M43 56H32V33.0031H11V56H0V0H11V24H31.9565V0H43V56Z" fill="#0E1111"/>
<path d="M63 56H52V16H63V56Z" fill="#0E1111"/>
<path d="M69.7266 35.7171C69.7266 29.71 71.1469 24.8729 73.9875 21.2059C76.8521 17.5389 80.7038 15.7054 85.5424 15.7054C89.8273 15.7054 93.6168 17.0567 96 20V16H105V54.3175C105 57.7433 104.656 60.6865 103.091 63.2197C101.551 65.7528 99.3721 67.6828 96.5556 69.0097C93.7391 70.3366 90.4412 71 86.6618 71C83.7971 71 81.0047 70.421 78.2844 69.263C75.5642 68.1291 73.506 66.6575 72.1098 64.8481L76.7318 58.4791C79.3316 61.3982 82.4851 62.8578 86.1923 62.8578C88.9607 62.8578 91.1152 62.1099 92.6559 60.6142C94.1965 59.1425 94.9668 57.0437 94.9668 54.3175V52.2187C92.5596 54.9448 89.394 56.3078 85.4702 56.3078C80.776 56.3078 76.9725 54.4743 74.0597 50.8073C71.171 47.1162 69.7266 42.2309 69.7266 36.1514V35.7171ZM80.1621 36.4771C80.1621 40.0234 80.8723 42.8099 82.2926 44.8364C83.7128 46.8388 85.6627 47.84 88.1422 47.84C91.3198 47.84 93.5947 46.6458 94.9668 44.2574V27.792C93.5706 25.4037 91.3198 24.2095 88.2144 24.2095C85.7109 24.2095 83.7369 25.2348 82.2926 27.2854C80.8723 29.3361 80.1621 32.3999 80.1621 36.4771Z" fill="#0E1111"/>
<path d="M124 20.5C126.768 17.1707 129.92 15.7054 134.109 15.7054C142.583 15.7054 146.88 20.639 147 30.5061V56H136V30.6875C136 28.4439 136.083 26.8994 135.12 25.8379C134.157 24.7523 132.556 24.2095 130.318 24.2095C127.26 24.2095 125.372 25.3545 124 27.7188V56H113V0H124V20.5Z" fill="#0E1111"/>
<path d="M160 56H156V0H160V56Z" fill="#0E1111"/>
<path d="M176.974 56H173V16H177L176.974 56Z" fill="#0E1111"/>
<path d="M187.026 35.5541C187.026 29.442 188.376 24.6052 191.076 21.0437C193.801 17.4582 197.489 15.6655 202.142 15.6655C207.47 15.6655 211.228 17.7648 214 22V16H218V55C218 60.0293 217.149 63.6606 214.328 66.5963C211.508 69.5321 207.687 71 202.865 71C200.141 71 197.537 70.3864 195.054 69.1591C192.595 67.9559 190.655 66.3437 189.232 64.3223L191.655 61.7234C194.717 65.4774 198.357 67.3543 202.576 67.3543C206.192 67.3543 209.013 66.2835 211.038 64.1418C213.063 62.0242 214.111 59.0764 214.184 55.2984V50.3894C211.411 54.2396 207.373 56.1647 202.07 56.1647C197.537 56.1647 193.897 54.3599 191.149 50.7504C188.401 47.1408 187.026 42.2679 187.026 36.1317V35.5541ZM191.402 36.3122C191.402 41.2933 192.402 45.2278 194.403 48.1154C196.404 50.979 199.225 52.4108 202.865 52.4108C208.193 52.4108 211.782 49.7646 214 45V27C212.987 24.4974 211.713 22.7041 209.808 21.4047C207.904 20.0812 205.613 19.4194 202.937 19.4194C199.297 19.4194 196.465 20.8512 194.44 23.7148C192.414 26.5543 191.402 30.7534 191.402 36.3122Z" fill="#0E1111"/>
<path d="M234 23C235.422 20.6658 237.387 18.8539 239.605 17.5785C241.823 16.3032 244.246 15.6655 246.873 15.6655C251.068 15.6655 254.19 16.8446 256.239 19.2028C258.288 21.5611 258.976 25.0624 259 29.7789V56H255V30C254.976 26.5108 254.274 23.6907 252.804 21.9822C251.357 20.2737 249.031 19.4194 245.825 19.4194C243.149 19.4194 240.774 20.2617 238.701 21.9461C236.652 23.6065 234.988 25.8167 234 28.6562V56H230V0H234V23Z" fill="#0E1111"/>
<path d="M277 0V16H285V20H277V46C277 48.1657 277.599 49.7277 278.37 50.7865C279.166 51.8453 280.479 52.3747 282.312 52.3747C283.035 52.3747 284.204 52.2544 285.819 52.0137L286 55.5511C284.867 55.9602 283.324 56.1647 281.371 56.1647C278.406 56.1647 276.35 55.2085 275 53.5C273.65 51.7674 273 49.3449 273 46V20H266V16H273V0H277Z" fill="#0E1111"/>
<path d="M173.533 9.59627C173.178 9.97723 173 10.4493 173 11.0124C173 11.5756 173.178 12.0476 173.533 12.4286C173.889 12.8095 174.374 13 174.988 13C175.602 13 176.087 12.8095 176.442 12.4286C176.814 12.0476 177 11.5756 177 11.0124C177 10.4493 176.814 9.97723 176.442 9.59627C176.087 9.19876 175.602 9 174.988 9C174.374 9 173.889 9.19876 173.533 9.59627Z" fill="#0E1111"/>
<rect y="79" width="147" height="14" fill="#0645AD"/>
<path d="M167 79V88.0962C167 89.6075 166.347 90.8026 165.377 91.6816C164.412 92.5605 163.092 93 161.416 93C159.766 93 158.456 92.5732 157.485 91.7195C156.514 90.8659 156.019 89.6929 156 88.2005V79H159V83.5V88.0962C159 89.0005 159.126 89.6865 159.572 90.0976C160.019 90.5086 160.266 90.7141 161.416 90.7141C163.054 90.7141 163.974 89.7782 164 88.0962V79H167Z" fill="#0645AD"/>
<path d="M175.476 87.7547H173V93H170V79H175.466C177.135 79 178.423 79.3636 179.329 80.0908C180.235 80.818 180.688 81.8455 180.688 83.1734C180.688 84.1156 180.478 84.9029 180.057 85.5352C179.643 86.1612 179.012 86.6608 178.164 87.0339L181.29 92.8672V93H178.164L175.476 87.7547ZM173 85.4499H175.476C176.207 85.4499 176.773 85.2696 177.174 84.9092C177.575 84.5425 177.776 84.0397 177.776 83.4011C177.776 82.7498 177.585 82.2376 177.203 81.8645C176.828 81.4914 176.249 81.3049 175.466 81.3049H173V85.4499Z" fill="#0645AD"/>
<path d="M187 90.5244H193V93H184V79H187V90.5244Z" fill="#0645AD"/>
<circle cx="57.5" cy="7.5" r="5.5" fill="#0E1111"/>
</svg>
